<?xml version="1.0" standalone="no"?>
<!DOCTYPE svg PUBLIC "-//W3C//DTD SVG 20010904//EN"
 "http://www.w3.org/TR/2001/REC-SVG-20010904/DTD/svg10.dtd">
<svg version="1.0" xmlns="http://www.w3.org/2000/svg"
 width="256.000000pt" height="256.000000pt" viewBox="0 0 256.000000 256.000000"
 preserveAspectRatio="xMidYMid meet">
<metadata>
Created by potrace 1.14, written by Peter Selinger 2001-2017
</metadata>
<g transform="translate(0.000000,256.000000) scale(0.100000,-0.100000)"
fill="#000000" stroke="none">
<path d="M1125 2034 c-85 -19 -167 -51 -243 -95 -73 -44 -217 -188 -261 -261
-140 -239 -146 -517 -18 -763 59 -113 201 -255 312 -312 140 -72 209 -88 370
-87 124 0 149 4 220 27 44 15 110 44 148 64 172 96 298 251 364 448 23 71 27
96 27 220 1 120 -2 151 -22 215 -44 139 -96 225 -202 330 -106 107 -197 162
-330 200 -100 29 -270 35 -365 14z"/>
</g>
</svg>
